<svg xmlns="http://www.w3.org/2000/svg" viewBox="0 0 1200 320">
<defs>
  <linearGradient id="bg" x1="0" y1="0" x2="1" y2="1"><stop stop-color="#03050a"/><stop offset=".55" stop-color="#08111f"/><stop offset="1" stop-color="#220307"/></linearGradient>
  <radialGradient id="glow"><stop stop-color="#d40000" stop-opacity=".42"/><stop offset="1" stop-color="#d40000" stop-opacity="0"/></radialGradient>
  <pattern id="web" width="90" height="90" patternUnits="userSpaceOnUse"><path d="M45 0V90M0 45H90M13 13L77 77M77 13L13 77" stroke="#fff" stroke-opacity=".055"/><circle cx="45" cy="45" r="22" fill="none" stroke="#fff" stroke-opacity=".04"/><circle cx="45" cy="45" r="39" fill="none" stroke="#fff" stroke-opacity=".035"/></pattern>
</defs>
<rect width="1200" height="320" fill="url(#bg)"/>
<ellipse cx="1010" cy="120" rx="300" ry="260" fill="url(#glow)"/>
<rect width="1200" height="320" fill="url(#web)"/>
<path d="M0 286 C180 255 260 315 430 280 S760 250 1200 286" fill="none" stroke="#c40000" stroke-width="2" stroke-opacity=".8"/>
<path d="M930 0 C900 75 930 135 875 190 S850 275 790 320" fill="none" stroke="#d50000" stroke-width="3" stroke-opacity=".55"/>
<g transform="translate(78 70)">
  <text x="0" y="32" fill="#d40000" font-family="monospace" font-size="18" font-weight="700" letter-spacing="5">PARKER // SYSTEM ONLINE</text>
  <text x="0" y="105" fill="#fff" font-family="Arial, sans-serif" font-size="52" font-weight="800" letter-spacing="2">PRANAV VASU K</text>
  <text x="3" y="142" fill="#c9d1d9" font-family="monospace" font-size="19" letter-spacing="4">DEVELOPER • BUILDER • PROBLEM SOLVER</text>
  <rect x="0" y="170" width="430" height="1" fill="#d40000"/>
  <text x="0" y="202" fill="#8b949e" font-family="monospace" font-size="15">NEW DAY. NEW BUILD. SAME SPIDER-SENSE.</text>
</g>
<g transform="translate(1015 178)">
  <circle r="54" fill="#05070d" stroke="#d40000" stroke-width="2"/>
  <path d="M0-43V43M-43 0H43M-30-30L30 30M30-30L-30 30" stroke="#d40000" stroke-width="2" opacity=".7"/>
  <ellipse rx="19" ry="28" fill="#d40000" opacity=".9"/>
  <circle cx="-7" cy="-4" r="4" fill="#fff"/><circle cx="7" cy="-4" r="4" fill="#fff"/>
</g>
</svg>